#!OML:ASF X:\für Bonn\!DataBase\2005_08_12_Daniel\c3d\Daniel.ASF
:FULLY-SPECIFIED
:DEGREES
167
root 5.37507 16.6074 -0.690649 163.903 -104.27 -171.586
lowerback 11.5851 -7.694 -2.61402
upperback 6.35288 -10.7406 -3.24852
thorax 0.0866082 -5.49923 -0.714098
lowerneck 17.4367 8.06415 -3.81614
upperneck 6.6615 9.34455 0.124085
head -0.940678 4.33016 0.114273
rclavicle -1.01082e-013 -1.19271e-014
rhumerus -49.2266 -10.0894 -75.6072
rradius 24.7985
rwrist 23.6057
rhand -11.0678 14.2698
rfingers 7.12502
rthumb 14.9552 -15.1702
lclavicle -1.01082e-013 -1.19271e-014
lhumerus -2.86159 -7.54076 67.9986
lradius 118.393
lwrist 16.5518
lhand -19.7284 -21.8302
lfingers 7.12502
lthumb 6.60206 8.04691
rfemur -22.8532 -8.21676 20.469
rtibia 51.743
rfoot -24.4313 0.578493
rtoes -1.99022
lfemur -0.395932 -3.08991 -16.0449
ltibia 69.3212
lfoot 1.40508 2.2998
ltoes -10.2653
168
root 5.41128 16.6047 -0.678757 164.406 -104.638 -171.554
lowerback 11.2388 -7.99653 -2.76974
upperback 6.14239 -11.134 -3.18996
thorax 0.094499 -5.69185 -0.565991
lowerneck 17.2248 8.08379 -3.50105
upperneck 6.34242 9.45901 -0.219118
head -0.979216 4.41567 -0.049369
rclavicle -6.29153e-014 3.97569e-015
rhumerus -49.1139 -9.80006 -76.0857
rradius 25.5957
rwrist 21.9118
rhand -11.6014 14.7157
rfingers 7.12502
rthumb 14.4411 -14.7618
lclavicle -6.29153e-014 3.97569e-015
lhumerus -2.08448 -7.6644 67.9916
lradius 118.67
lwrist 16.3186
lhand -19.7873 -21.9203
lfingers 7.12502
lthumb 6.5452 7.95858
rfemur -23.7403 -8.5879 20.3392
rtibia 52.0255
rfoot -24.3411 0.617223
rtoes -1.9957
lfemur 0.571619 -3.11015 -16.0025
ltibia 67.7109
lfoot 0.176415 2.25532
ltoes -9.92239
169
root 5.44943 16.5992 -0.666328 164.886 -104.987 -171.498
lowerback 10.9027 -8.28725 -2.9182
upperback 5.93342 -11.5117 -3.12927
thorax 0.100622 -5.87645 -0.423704
lowerneck 17.0534 8.10842 -3.2071
upperneck 6.00952 9.57115 -0.526982
head -1.03178 4.49819 -0.200312
rclavicle -2.18663e-015 -1.03368e-014
rhumerus -49.0535 -9.44697 -76.6198
rradius 26.4714
rwrist 20.1337
rhand -12.2029 15.219
rfingers 7.12502
rthumb 13.8615 -14.2991
lclavicle -2.18663e-015 -1.03368e-014
lhumerus -1.30222 -7.80931 68.0612
lradius 118.872
lwrist 16.0111
lhand -19.816 -21.8817
lfingers 7.12502
lthumb 6.51742 7.99799
rfemur -24.6464 -8.88838 20.2236
rtibia 52.3298
rfoot -24.2291 0.574318
rtoes -1.89489
lfemur 1.47539 -3.1257 -16.008
ltibia 65.9666
lfoot -1.06451 2.21835
ltoes -10.4495
170
root 5.48854 16.5938 -0.654472 165.279 -105.319 -171.357
lowerback 10.5872 -8.57122 -3.0926
upperback 5.72057 -11.8837 -3.06457
thorax 0.100698 -6.05866 -0.265003
lowerneck 16.8942 8.14631 -2.91973
upperneck 5.70386 9.69523 -0.822973
head -1.07783 4.58468 -0.347026
rclavicle 6.44062e-014 2.70347e-014
rhumerus -48.9829 -9.11558 -77.1445
rradius 27.3409
rwrist 18.4337
rhand -12.8271 15.7876
rfingers 7.12502
rthumb 13.2599 -13.7706
lclavicle 6.44062e-014 2.70347e-014
lhumerus -0.55542 -7.93447 68.2057
lradius 119.043
lwrist 15.6756
lhand -19.9098 -21.7738
lfingers 7.12502
lthumb 6.42692 8.10869
rfemur -25.5758 -9.06416 20.1019
rtibia 52.6613
rfoot -24.1108 0.423792
rtoes -1.65736
lfemur 2.30586 -3.10405 -16.0347
ltibia 64.1457
lfoot -2.31905 2.1172
ltoes -11.6507
171
root 5.52897 16.5875 -0.642438 165.597 -105.63 -171.154
lowerback 10.2972 -8.84034 -3.27478
upperback 5.51967 -12.2384 -3.0096
thorax 0.102007 -6.23261 -0.1144
lowerneck 16.7386 8.18674 -2.65657
upperneck 5.39321 9.8173 -1.05883
head -1.13028 4.66803 -0.471572
rclavicle -1.10325e-014 1.03368e-014
rhumerus -48.9029 -8.80171 -77.6828
rradius 28.2369
rwrist 16.7776
rhand -13.4546 16.3911
rfingers 7.12502
rthumb 12.655 -13.2055
lclavicle -1.10325e-014 1.03368e-014
lhumerus 0.100396 -8.08261 68.3596
lradius 119.205
lwrist 15.333
lhand -20.0521 -21.676
lfingers 7.12502
lthumb 6.28953 8.21065
rfemur -26.4955 -9.14283 19.9697
rtibia 53.0192
rfoot -23.9856 0.195886
rtoes -1.25597
lfemur 3.11731 -3.05951 -16.0766
ltibia 62.2526
lfoot -3.65268 1.99322
ltoes -13.4675
172
root 5.57157 16.5774 -0.630086 165.82 -105.925 -170.86
lowerback 10.0228 -9.09801 -3.47096
upperback 5.31564 -12.5801 -2.96441
thorax 0.0951512 -6.40002 0.0320454
lowerneck 16.6295 8.23192 -2.39542
upperneck 5.08662 9.94016 -1.27625
head -1.18982 4.75014 -0.592245
rclavicle 9.2733e-014 -1.82882e-014
rhumerus -48.8486 -8.44997 -78.2595
rradius 29.1809
rwrist 15.1464
rhand -14.078 16.9625
rfingers 7.12502
rthumb 12.0539 -12.6704
lclavicle 9.2733e-014 -1.82882e-014
lhumerus 0.596256 -8.23505 68.5479
lradius 119.361
lwrist 14.9572
lhand -20.2361 -21.7332
lfingers 7.12502
lthumb 6.11183 8.15869
rfemur -27.4527 -9.15626 19.8119
rtibia 53.422
rfoot -23.8367 -0.0815774
rtoes -0.869746
lfemur 3.94352 -3.01005 -16.1447
ltibia 60.3131
lfoot -5.1538 1.82778
ltoes -15.6382
173
root 5.61684 16.5638 -0.61608 166.03 -106.187 -170.561
lowerback 9.78427 -9.35058 -3.66902
upperback 5.10333 -12.9165 -2.90041
thorax 0.0679234 -6.56434 0.201617
lowerneck 16.5426 8.29672 -2.19338
upperneck 4.76464 10.0761 -1.46409
head -1.2625 4.8368 -0.697011
rclavicle -1.03368e-014 4.92986e-014
rhumerus -48.7752 -8.1081 -78.7837
rradius 30.1261
rwrist 13.6876
rhand -14.6714 17.4735
rfingers 7.12502
rthumb 11.4816 -12.192
lclavicle -1.03368e-014 4.92986e-014
lhumerus 0.895558 -8.36639 68.7781
lradius 119.557
lwrist 14.5855
lhand -20.4549 -21.9565
lfingers 7.12502
lthumb 5.90067 7.9413
rfemur -28.4325 -9.09096 19.6497
rtibia 53.8573
rfoot -23.699 -0.395711
rtoes -0.414412
lfemur 4.78883 -2.99275 -16.2402
ltibia 58.3542
lfoot -6.88472 1.67438
ltoes -17.4601
174
root 5.66377 16.5487 -0.601164 166.149 -106.42 -170.163
lowerback 9.5336 -9.58427 -3.86463
upperback 4.91106 -13.2275 -2.85526
thorax 0.0653373 -6.71665 0.341913
lowerneck 16.3829 8.3402 -1.92516
upperneck 4.49202 10.198 -1.68768
head -1.30049 4.91759 -0.817712
rclavicle 1.51076e-014 7.95139e-016
rhumerus -48.6656 -7.81089 -79.3427
rradius 31.0869
rwrist 12.2928
rhand -15.2339 17.9615
rfingers 7.12502
rthumb 10.9392 -11.7335
lclavicle 1.51076e-014 7.95139e-016
lhumerus 1.16924 -8.49881 68.9882
lradius 119.72
lwrist 14.2331
lhand -20.7197 -22.357
lfingers 7.12502
lthumb 5.64502 7.54778
rfemur -29.4613 -8.97118 19.4615
rtibia 54.34
rfoot -23.5666 -0.744335
rtoes -0.0159435
lfemur 5.61812 -3.00952 -16.4027
ltibia 56.398
lfoot -8.74073 1.60036
ltoes -18.8856
